<mxfile host="app.diagrams.net" agent="Mozilla/5.0 (Windows NT 10.0; Win64; x64) AppleWebKit/537.36 (KHTML, like Gecko) Chrome/130.0.0.0 Safari/537.36" version="24.8.2">
  <diagram id="C5RBs43oDa-KdzZeNtuy" name="Page-1">
    <mxGraphModel dx="1050" dy="557" grid="1" gridSize="10" guides="1" tooltips="1" connect="1" arrows="1" fold="1" page="1" pageScale="1" pageWidth="827" pageHeight="1169" math="0" shadow="0">
      <root>
        <mxCell id="WIyWlLk6GJQsqaUBKTNV-0" />
        <mxCell id="WIyWlLk6GJQsqaUBKTNV-1" parent="WIyWlLk6GJQsqaUBKTNV-0" />
        <mxCell id="0rf-qmO5JRJ2_4VARCHY-2" value="Policy Documents &amp;amp; Financial Reports Data Store" style="shape=partialRectangle;whiteSpace=wrap;html=1;left=0;right=0;fillColor=none;" vertex="1" parent="WIyWlLk6GJQsqaUBKTNV-1">
          <mxGeometry x="620" y="60" width="120" height="60" as="geometry" />
        </mxCell>
        <mxCell id="0rf-qmO5JRJ2_4VARCHY-3" value="Blog Posts Data Store" style="shape=partialRectangle;whiteSpace=wrap;html=1;left=0;right=0;fillColor=none;" vertex="1" parent="WIyWlLk6GJQsqaUBKTNV-1">
          <mxGeometry x="90" y="400" width="120" height="60" as="geometry" />
        </mxCell>
        <mxCell id="0rf-qmO5JRJ2_4VARCHY-4" value="Guest Users" style="rounded=0;whiteSpace=wrap;html=1;" vertex="1" parent="WIyWlLk6GJQsqaUBKTNV-1">
          <mxGeometry x="90" y="40" width="120" height="60" as="geometry" />
        </mxCell>
        <mxCell id="0rf-qmO5JRJ2_4VARCHY-5" value="CodeFusion Employees" style="rounded=0;whiteSpace=wrap;html=1;" vertex="1" parent="WIyWlLk6GJQsqaUBKTNV-1">
          <mxGeometry x="310" y="400" width="120" height="60" as="geometry" />
        </mxCell>
        <mxCell id="0rf-qmO5JRJ2_4VARCHY-13" value="External Webserver, with user authenitcation" style="rounded=0;whiteSpace=wrap;html=1;" vertex="1" parent="WIyWlLk6GJQsqaUBKTNV-1">
          <mxGeometry x="90" y="200" width="120" height="60" as="geometry" />
        </mxCell>
        <mxCell id="0rf-qmO5JRJ2_4VARCHY-15" value="" style="endArrow=classic;html=1;rounded=1;curved=0;" edge="1" parent="WIyWlLk6GJQsqaUBKTNV-1">
          <mxGeometry width="50" height="50" relative="1" as="geometry">
            <mxPoint x="130" y="100" as="sourcePoint" />
            <mxPoint x="130" y="200" as="targetPoint" />
            <Array as="points">
              <mxPoint x="120" y="160" />
            </Array>
          </mxGeometry>
        </mxCell>
        <mxCell id="0rf-qmO5JRJ2_4VARCHY-17" value="" style="endArrow=classic;html=1;rounded=0;" edge="1" parent="WIyWlLk6GJQsqaUBKTNV-1">
          <mxGeometry width="50" height="50" relative="1" as="geometry">
            <mxPoint x="180" y="200" as="sourcePoint" />
            <mxPoint x="180" y="110" as="targetPoint" />
            <Array as="points">
              <mxPoint x="190" y="160" />
            </Array>
          </mxGeometry>
        </mxCell>
        <mxCell id="0rf-qmO5JRJ2_4VARCHY-19" value="Responses" style="rounded=0;whiteSpace=wrap;html=1;strokeColor=none;" vertex="1" parent="WIyWlLk6GJQsqaUBKTNV-1">
          <mxGeometry x="200" y="140" width="70" height="30" as="geometry" />
        </mxCell>
        <mxCell id="0rf-qmO5JRJ2_4VARCHY-20" value="Requests" style="rounded=0;whiteSpace=wrap;html=1;strokeColor=none;" vertex="1" parent="WIyWlLk6GJQsqaUBKTNV-1">
          <mxGeometry x="50" y="140" width="70" height="30" as="geometry" />
        </mxCell>
        <mxCell id="0rf-qmO5JRJ2_4VARCHY-24" value="" style="endArrow=none;dashed=1;html=1;rounded=0;" edge="1" parent="WIyWlLk6GJQsqaUBKTNV-1">
          <mxGeometry width="50" height="50" relative="1" as="geometry">
            <mxPoint x="40" y="280" as="sourcePoint" />
            <mxPoint x="290" y="280" as="targetPoint" />
          </mxGeometry>
        </mxCell>
        <mxCell id="0rf-qmO5JRJ2_4VARCHY-25" value="" style="endArrow=classic;html=1;rounded=1;curved=0;" edge="1" parent="WIyWlLk6GJQsqaUBKTNV-1">
          <mxGeometry width="50" height="50" relative="1" as="geometry">
            <mxPoint x="131" y="285" as="sourcePoint" />
            <mxPoint x="131" y="385" as="targetPoint" />
            <Array as="points">
              <mxPoint x="121" y="345" />
            </Array>
          </mxGeometry>
        </mxCell>
        <mxCell id="0rf-qmO5JRJ2_4VARCHY-26" value="" style="endArrow=classic;html=1;rounded=0;" edge="1" parent="WIyWlLk6GJQsqaUBKTNV-1">
          <mxGeometry width="50" height="50" relative="1" as="geometry">
            <mxPoint x="180" y="383" as="sourcePoint" />
            <mxPoint x="180" y="293" as="targetPoint" />
            <Array as="points">
              <mxPoint x="190" y="343" />
            </Array>
          </mxGeometry>
        </mxCell>
        <mxCell id="0rf-qmO5JRJ2_4VARCHY-27" value="Requests" style="rounded=0;whiteSpace=wrap;html=1;strokeColor=none;" vertex="1" parent="WIyWlLk6GJQsqaUBKTNV-1">
          <mxGeometry x="49" y="326" width="70" height="30" as="geometry" />
        </mxCell>
        <mxCell id="0rf-qmO5JRJ2_4VARCHY-28" value="Responses" style="rounded=0;whiteSpace=wrap;html=1;strokeColor=none;" vertex="1" parent="WIyWlLk6GJQsqaUBKTNV-1">
          <mxGeometry x="204" y="321" width="70" height="30" as="geometry" />
        </mxCell>
        <mxCell id="0rf-qmO5JRJ2_4VARCHY-29" value="Trust Boundary" style="rounded=0;whiteSpace=wrap;html=1;strokeColor=none;" vertex="1" parent="WIyWlLk6GJQsqaUBKTNV-1">
          <mxGeometry x="307" y="269" width="83" height="30" as="geometry" />
        </mxCell>
        <mxCell id="0rf-qmO5JRJ2_4VARCHY-30" value="" style="endArrow=classic;startArrow=classic;html=1;rounded=0;" edge="1" parent="WIyWlLk6GJQsqaUBKTNV-1">
          <mxGeometry width="50" height="50" relative="1" as="geometry">
            <mxPoint x="230" y="429.5" as="sourcePoint" />
            <mxPoint x="300" y="429.5" as="targetPoint" />
          </mxGeometry>
        </mxCell>
        <mxCell id="0rf-qmO5JRJ2_4VARCHY-31" value="Updates" style="rounded=0;whiteSpace=wrap;html=1;strokeColor=none;" vertex="1" parent="WIyWlLk6GJQsqaUBKTNV-1">
          <mxGeometry x="226" y="443" width="70" height="30" as="geometry" />
        </mxCell>
      </root>
    </mxGraphModel>
  </diagram>
</mxfile>
